<svg xmlns="http://www.w3.org/2000/svg" viewBox="0 0 80 48" fill="none">
  <!-- ArvanCloud Official Logo -->
  <defs>
    <linearGradient id="arvanGrad" x1="0%" y1="0%" x2="100%" y2="100%">
      <stop offset="0%" style="stop-color:#FF6B00"/>
      <stop offset="100%" style="stop-color:#FF9500"/>
    </linearGradient>
  </defs>
  <!-- Cloud shape based on official ArvanCloud logo -->
  <path d="M58 30c0-5-4-9-9-9-.8 0-1.6.1-2.3.3C45.3 15.5 40 11 33.5 11c-8.3 0-15 6.7-15 15 0 .8.1 1.6.2 2.4C14.8 29.5 12 32.8 12 37c0 5 4 9 9 9h28c5 0 9-4 9-9 0-2.5-1-4.7-2.6-6.4.4-.8.6-1.7.6-2.6z" fill="url(#arvanGrad)"/>
  <!-- Inner arrow/A shape -->
  <path d="M33 22l8 14h-5l-1.5-3h-7l-1.5 3h-5l8-14h4zm-1 3.5l-2 4h4l-2-4z" fill="white" fill-opacity="0.9"/>
</svg>
