<svg xmlns="http://www.w3.org/2000/svg" viewBox="0 0 80 48" fill="none">
  <path d="M40 8c-8.8 0-16 7.2-16 16 0 2.4.5 4.6 1.5 6.7-.3.2-.5.4-.7.7-1.6 1.6-2.4 3.7-2.4 5.9 0 1.5.4 2.9 1.1 4.2H16c-3.3 0-6-2.7-6-6 0-2.7 1.8-5 4.3-5.7-.2-.8-.3-1.5-.3-2.3 0-5.5 4.5-10 10-10 1.4 0 2.8.3 4 .8C30.4 12.5 34.8 8 40 8z" fill="#FF7A00"/>
  <path d="M64 29.5c0-4.1-3.4-7.5-7.5-7.5-.6 0-1.2.1-1.8.2C53.3 16.3 47.2 12 40 12c-9.9 0-18 8.1-18 18 0 1.1.1 2.1.3 3.1C19.5 34 17.5 36.4 17.5 39.3c0 3.6 2.9 6.7 6.5 6.7h33c4.4 0 8-3.6 8-8 0-3.2-1.9-6-4.6-7.3.4-1 .6-2.1.6-3.2 0-.7-.3-1.4-.5-2z" fill="#FF9500"/>
  <path d="M40 18l8 12H32l8-12z" fill="white"/>
  <path d="M40 24l5 8h-10l5-8z" fill="#FF7A00"/>
</svg>
