<svg viewBox="0 0 24 24" xmlns="http://www.w3.org/2000/svg" role="img"><path d="M12.798 3.084A5.416 5.416 0 0 0 7.683 7.27H5.979l1.084-1.08-1.166-1.166L4.732 6.19l1.081 1.08h-.397a5.42 5.42 0 0 0-5.41 5.186C0 12.532 0 13.164 0 13.241a5.414 5.414 0 0 0 4.495 5.336v-1.681a3.796 3.796 0 0 1-2.848-3.655c0-.056 0-.668.004-.723a3.772 3.772 0 0 1 3.764-3.603h6.697V7.27H9.396a3.769 3.769 0 0 1 7.331 1.227v1.17h-2.335v1.647h3.97a3.978 3.978 0 1 1 .01 7.957v-7.31h-1.645v8.957h1.637A5.643 5.643 0 0 0 24 15.304v-.024a5.643 5.643 0 0 0-5.626-5.613v-1.17a5.416 5.416 0 0 0-5.575-5.413zm-2.29 6.487a3.16 3.16 0 0 0 .093 6.319h1.513v.336a.708.708 0 0 1-.728.704H7.429v1.647h3.957c1.31 0 2.375-1.054 2.375-2.35V12.73a3.16 3.16 0 0 0-3.253-3.16zm-5.37.096v8.91h1.648v-8.91zm5.399 1.55a1.513 1.513 0 0 1 1.576 1.513v1.513H10.6a1.513 1.513 0 0 1-.063-3.025zm3.881.744v4.224a2.987 2.987 0 0 1-2.983 2.984h-1.062v1.647h1.062a4.635 4.635 0 0 0 4.63-4.63v-4.225z" fill="#FF6600"/></svg>
