<svg xmlns="http://www.w3.org/2000/svg" viewBox="0 0 80 48" fill="none">
  <!-- AWS Official Logo -->
  <g transform="translate(10, 10)">
    <!-- AWS Text -->
    <path d="M13.5 20.7l-1.3-4.4c-.1-.4-.2-.8-.3-1.3-.1.5-.2.9-.3 1.3l-1.3 4.4h3.2zm2.1 4.8h-2.4l-.8-2.7h-4.1l-.8 2.7h-2.3l4-12.1h2.4l4 12.1z" fill="currentColor"/>
    <path d="M26.9 25.5h-2.2l-2-9.9h-.1l-2 9.9h-2.2l-2.7-12.1h2.4l1.6 10h.1l2-10h2.1l2 10h.1l1.6-10h2.3l-2.9 12.1z" fill="currentColor"/>
    <path d="M37.3 21.7c0 1.3-.3 2.3-1 3-.7.7-1.7 1-2.9 1-1 0-1.8-.2-2.4-.5V23c.3.2.6.4 1 .5.4.1.8.2 1.2.2.7 0 1.2-.2 1.5-.5.3-.4.5-.9.5-1.7v-8.1h2.2v8.3z" fill="currentColor"/>
  </g>
  <!-- AWS Smile/Arrow -->
  <path d="M15 32c5.5 3.3 12.1 5.2 19 5.2 9.3 0 17.6-3.4 24-9 .5-.4.1-.9-.4-.6-6.8 4-15.3 6.4-24 6.4-5.9 0-12.3-1.2-18.3-3.7-.9-.4-1.7.6-.3 1.7z" fill="#FF9900"/>
  <path d="M57.5 30.5c-.7-.9-4.6-.4-6.3-.2-.5.1-.6-.4-.1-.7 3.1-2.2 8.2-1.5 8.8-.8.6.7-.2 5.9-3.1 8.3-.4.4-.9.2-.7-.3.7-1.7 2.1-5.4 1.4-6.3z" fill="#FF9900"/>
</svg>
