<svg xmlns="http://www.w3.org/2000/svg" viewBox="0 0 80 48" fill="none">
  <path d="M22.8 28.8c-4.1 3-10.1 4.6-15.2 4.6-7.2 0-13.7-2.7-18.6-7.1-.4-.4 0-.9.4-.6 5.3 3.1 11.9 4.9 18.6 4.9 4.6 0 9.6-.9 14.2-2.9.7-.3 1.3.5.6 1.1z" transform="translate(20 6)" fill="#FF9900"/>
  <path d="M24.6 26.7c-.5-.7-3.5-.3-4.9-.2-.4.1-.5-.3-.1-.6 2.4-1.7 6.3-1.2 6.7-.6.4.6-.1 4.5-2.4 6.4-.3.3-.7.1-.5-.2.5-1.2 1.6-4.1 1.2-4.8z" transform="translate(20 6)" fill="#FF9900"/>
  <path d="M19.8 8.4V6.2c0-.3.2-.5.5-.5h9c.3 0 .5.2.5.5v1.9c0 .3-.2.7-.6 1.2l-4.7 6.7c1.7 0 3.6.2 5.2 1.1.4.2.5.5.5.8v2.3c0 .3-.4.7-.7.5-3.1-1.6-7.2-1.8-10.6 0-.3.2-.7-.2-.7-.5v-2.2c0-.4 0-1 .4-1.5l5.4-7.8h-4.7c-.3 0-.5-.2-.5-.5z" transform="translate(20 6)" fill="currentColor"/>
  <path d="M7.3 21.3H4.5c-.3 0-.5-.2-.5-.5V6.3c0-.3.2-.5.5-.5h2.6c.3 0 .5.2.5.5v1.9h.1c.7-1.7 2-2.5 3.8-2.5 1.8 0 2.9.8 3.7 2.5.7-1.7 2.2-2.5 3.9-2.5 1.2 0 2.5.5 3.3 1.6.9 1.2.7 3 .7 4.6v8.8c0 .3-.2.5-.5.5h-2.8c-.3 0-.5-.2-.5-.5v-7.4c0-.6.1-2.2-.1-2.8-.2-1-.9-1.3-1.8-1.3-.7 0-1.5.5-1.8 1.3-.3.8-.3 2.1-.3 2.8v7.4c0 .3-.2.5-.5.5h-2.8c-.3 0-.5-.2-.5-.5v-7.4c0-1.6.3-4-.1-5.5-.3-.9-.9-1.3-1.7-1.3-1.7 0-2 1.9-2 3.4v8.3c0 .3-.2.5-.5.5h-2.8c-.3 0-.5-.2-.5-.5V6.3c0-.3.2-.5.5-.5h2.6c.3 0 .5.2.5.5v2.1h.1c.8-1.8 1.8-2.6 3.8-2.6 1.9 0 3.1.8 3.8 2.6z" transform="translate(20 6)" fill="currentColor"/>
  <path d="M43.5 5.7c4.2 0 6.5 3.6 6.5 8.2 0 4.4-2.5 8-6.5 8-4.2 0-6.5-3.6-6.5-8.1 0-4.5 2.3-8.1 6.5-8.1zm0 3c-2.1 0-2.3 2.9-2.3 4.7 0 1.8 0 5.5 2.2 5.5 2.2 0 2.3-3 2.3-4.9 0-1.2-.1-2.6-.4-3.8-.3-1-1-1.5-1.8-1.5z" transform="translate(20 6)" fill="currentColor"/>
</svg>
